<?xml version="1.0" standalone="no"?>
<!DOCTYPE svg PUBLIC "-//W3C//DTD SVG 20010904//EN"
 "http://www.w3.org/TR/2001/REC-SVG-20010904/DTD/svg10.dtd">
<svg version="1.0" xmlns="http://www.w3.org/2000/svg"
 width="251.000000pt" height="506.000000pt" viewBox="0 0 251.000000 506.000000"
 preserveAspectRatio="xMidYMid meet">

<g transform="translate(0.000000,506.000000) scale(0.100000,-0.100000)"
fill="#000000" stroke="none">
<path d="M1245 4897 c-24 -20 -27 -29 -27 -92 1 -39 -2 -86 -5 -105 -5 -29 -7
-31 -14 -15 -7 19 -8 19 -8 -2 -1 -13 3 -23 8 -23 5 0 11 -10 13 -22 2 -13 7
5 11 40 10 75 26 84 19 10 -6 -71 -58 -402 -98 -623 -7 -42 -22 -97 -28 -102
-3 -4 0 -13 7 -21 9 -13 9 -14 0 -8 -8 4 -13 2 -13 -8 0 -8 4 -17 9 -21 10 -6
31 55 31 90 0 11 7 54 16 95 9 41 31 163 49 270 37 217 46 229 15 20 -11 -74
-27 -185 -35 -245 -8 -61 -19 -125 -24 -142 -5 -17 -7 -34 -4 -37 3 -3 1 -11
-4 -18 -6 -7 -10 -28 -8 -46 1 -18 -2 -35 -6 -38 -5 -3 -11 -27 -15 -54 -4
-28 -10 -50 -14 -50 -4 0 -10 -15 -13 -32 -3 -18 -8 -42 -10 -53 -3 -11 -6
-31 -7 -45 -2 -22 -3 -22 -11 8 -6 19 -14 30 -20 26 -8 -4 -9 4 -5 27 l6 34
-13 -30 c-9 -19 -10 -32 -4 -36 5 -4 1 -12 -9 -18 -16 -9 -17 -10 -2 -11 9 0
18 6 21 13 2 6 7 10 10 7 9 -8 -4 -50 -15 -50 -5 0 -7 4 -4 9 4 5 -4 7 -16 3
-22 -5 -22 -6 5 -15 26 -8 39 -37 16 -37 -5 0 -8 -4 -5 -9 4 -5 -4 -6 -16 -3
-19 5 -20 7 -5 10 19 4 23 17 7 27 -5 3 -10 1 -10 -6 0 -7 -3 -9 -7 -5 -4 3
-12 -6 -18 -21 -10 -23 -9 -29 2 -33 11 -5 10 -10 -5 -28 -11 -12 -23 -43 -26
-67 -8 -48 -23 -66 -37 -44 -12 20 -11 -3 1 -37 6 -15 7 -30 2 -33 -11 -8 -24
-44 -13 -37 5 3 12 -5 15 -18 4 -16 20 -31 46 -43 22 -10 40 -21 40 -25 0 -14
-95 33 -112 55 -19 25 -54 31 -62 11 -3 -8 -12 -14 -20 -14 -17 0 -56 -46 -56
-66 0 -8 9 -14 19 -14 26 0 34 -15 17 -29 -10 -9 -15 -8 -20 4 -9 25 -24 17
-18 -10 2 -14 9 -25 14 -25 5 0 8 -10 6 -22 -4 -31 23 -34 77 -8 73 35 247 30
340 -11 95 -41 137 -57 121 -44 -18 14 -17 16 29 36 120 53 261 63 369 25 72
-25 99 -25 89 0 -3 8 2 25 11 38 15 24 15 25 -14 31 -16 4 -35 4 -42 0 -7 -4
-2 3 12 14 14 11 31 19 38 16 22 -8 13 11 -25 51 -21 21 -38 42 -38 46 0 4
-17 26 -39 49 l-39 43 -18 -35 c-21 -40 -25 -32 -6 14 7 18 12 38 11 45 -1 6
-2 17 -3 22 0 6 -8 10 -16 10 -14 0 -19 11 -16 38 1 6 -2 12 -7 12 -6 0 -9 7
-8 16 0 9 -5 19 -11 21 -16 6 -17 -39 -2 -54 7 -7 7 -13 1 -17 -6 -3 -13 3
-17 14 -3 11 -10 20 -15 20 -4 0 -10 9 -13 20 -3 11 -2 18 3 15 4 -3 10 4 13
14 3 14 0 17 -13 14 -18 -5 -35 21 -25 38 4 5 0 7 -7 4 -7 -3 -20 0 -28 5 -13
9 -13 11 0 19 10 7 17 6 22 -2 6 -9 8 -9 8 0 0 6 -5 15 -11 18 -6 4 -8 13 -5
21 3 8 1 14 -5 14 -6 0 -17 7 -25 15 -9 8 -13 15 -11 15 3 0 -2 30 -9 68 -22
107 -25 116 -36 129 -6 7 -15 44 -19 81 -15 113 -17 124 -33 222 -14 90 -27
182 -41 295 -4 31 -3 46 3 40 5 -5 15 -57 21 -115 7 -58 18 -127 26 -155 16
-62 29 -127 27 -137 -1 -5 3 -8 8 -8 6 0 8 10 5 23 -14 67 -24 140 -19 148 3
5 0 9 -5 9 -6 0 -11 7 -11 15 0 9 6 12 15 9 8 -4 15 -13 15 -22 0 -8 3 -13 6
-9 11 11 -7 46 -27 52 -14 5 -19 15 -19 40 0 19 5 37 11 41 8 4 9 -1 4 -17 -4
-16 -3 -20 3 -11 7 11 10 11 15 -2 4 -9 2 -16 -4 -16 -6 0 -3 -7 6 -17 14 -13
18 -14 25 -3 9 14 -5 50 -19 50 -4 0 -13 25 -20 55 -7 30 -16 57 -20 59 -11 7
0 -57 13 -73 8 -11 8 -13 -1 -8 -6 4 -14 1 -16 -5 -3 -7 -6 -2 -7 12 -3 36 -6
61 -20 192 -7 65 -10 121 -7 124 3 3 9 -20 12 -51 5 -40 11 -55 21 -51 8 3 15
-5 18 -22 2 -15 2 20 -1 77 -5 102 -6 117 -18 173 -13 55 -84 75 -130 35z m85
-17 c0 -5 -2 -10 -4 -10 -3 0 -8 5 -11 10 -3 6 -1 10 4 10 6 0 11 -4 11 -10z
m-72 -25 c-3 -3 -9 2 -12 12 -6 14 -5 15 5 6 7 -7 10 -15 7 -18z m43 2 c-8 -8
-14 -7 -23 2 -10 11 -10 13 0 7 6 -4 12 -2 12 4 0 6 5 8 11 4 8 -4 8 -9 0 -17z
m63 -17 c-6 -6 -10 -3 -10 10 0 13 4 16 10 10 7 -7 7 -13 0 -20z m-111 -52
c-3 -21 -9 -38 -14 -38 -6 0 -8 12 -5 28 2 15 5 36 5 47 1 11 4 15 10 10 4 -6
6 -27 4 -47z m107 22 c-18 -12 -30 -13 -30 -2 0 4 10 9 22 9 18 2 20 0 8 -7z
m-83 -22 c-3 -8 -6 -5 -6 6 -1 11 2 17 5 13 3 -3 4 -12 1 -19z m102 -73 c0
-31 -2 -35 -9 -20 -4 11 -6 31 -3 44 4 16 2 22 -5 17 -6 -3 -14 -1 -18 5 -4 8
-3 9 4 5 7 -4 12 -1 12 6 0 9 3 9 10 -2 5 -8 9 -33 9 -55z m-62 -17 c-3 -7 -5
-2 -5 12 0 14 2 19 5 13 2 -7 2 -19 0 -25z m-50 -25 c-3 -10 -5 -2 -5 17 0 19
2 27 5 18 2 -10 2 -26 0 -35z m60 -80 c-3 -10 -5 -2 -5 17 0 19 2 27 5 18 2
-10 2 -26 0 -35z m-70 -20 c-3 -10 -5 -2 -5 17 0 19 2 27 5 18 2 -10 2 -26 0
-35z m80 -40 c-3 -10 -5 -4 -5 12 0 17 2 24 5 18 2 -7 2 -21 0 -30z m-46 -492
c6 10 9 11 9 2 0 -7 5 -13 11 -13 5 0 7 5 4 10 -3 6 -1 10 4 10 15 0 14 -53
-1 -68 -9 -9 -9 -12 0 -12 7 0 12 -7 12 -16 0 -8 -4 -12 -10 -9 -5 3 -8 0 -5
-7 4 -13 10 -60 22 -158 3 -30 10 -63 15 -74 7 -14 7 -16 -2 -11 -9 6 -9 2 -1
-14 7 -12 9 -26 6 -32 -4 -5 -4 -18 0 -27 4 -9 9 -28 10 -42 7 -56 16 -93 31
-116 16 -23 40 -24 28 -1 -3 7 1 4 10 -6 8 -11 12 -26 9 -34 -4 -9 -8 -11 -12
-4 -8 12 -60 -12 -73 -32 -4 -7 -33 -12 -74 -12 -52 0 -69 4 -79 19 -10 13
-21 17 -39 12 -21 -5 -26 -3 -26 13 0 23 16 36 25 21 5 -7 12 -5 20 7 7 10 11
21 9 25 -3 5 -1 8 4 8 5 0 9 16 10 35 1 19 6 44 12 55 8 15 8 20 -2 20 -11 0
-10 2 0 9 7 4 15 30 17 57 14 148 17 181 18 197 1 9 4 17 7 17 3 0 5 23 4 52
-2 29 0 57 4 62 3 6 5 24 4 41 -1 16 1 24 4 16 5 -11 8 -11 15 0z m209 -425
c0 -3 -4 -8 -10 -11 -5 -3 -10 -1 -10 4 0 6 5 11 10 11 6 0 10 -2 10 -4z
m-466 -252 c3 -8 2 -12 -4 -9 -6 3 -10 10 -10 16 0 14 7 11 14 -7z m531 6 c3
-5 -1 -10 -10 -10 -9 0 -13 5 -10 10 3 6 8 10 10 10 2 0 7 -4 10 -10z m-575
-41 c5 9 14 1 28 -22 13 -23 33 -39 57 -47 20 -7 34 -14 32 -16 -9 -9 -93 28
-110 49 -12 15 -15 17 -11 5 3 -10 1 -18 -5 -18 -6 0 -11 16 -10 38 1 20 4 28
6 18 4 -13 7 -15 13 -7z m633 -2 c2 -6 -2 -18 -9 -25 -8 -7 -14 -10 -14 -7 0
4 -14 -5 -31 -19 -17 -15 -42 -26 -57 -25 -26 1 -26 1 5 10 19 6 39 22 52 44
21 35 45 45 54 22z m87 -52 c0 -26 -121 -107 -137 -91 -4 3 1 6 10 6 23 0 87
67 87 91 0 17 3 18 20 9 11 -6 20 -13 20 -15z"/>
<path d="M1365 4580 c3 -5 8 -10 11 -10 2 0 4 5 4 10 0 6 -5 10 -11 10 -5 0
-7 -4 -4 -10z"/>
<path d="M1402 4550 c0 -19 2 -27 5 -17 2 9 2 25 0 35 -3 9 -5 1 -5 -18z"/>
<path d="M1191 4527 c0 -16 -4 -26 -8 -24 -5 3 -6 -16 -4 -41 l4 -47 9 45 c5
25 7 56 5 70 -4 24 -4 23 -6 -3z"/>
<path d="M1412 4485 c0 -16 4 -43 8 -60 11 -42 11 -1 1 50 -7 34 -9 35 -9 10z"/>
<path d="M1160 4385 c7 -9 15 -13 17 -11 7 7 -7 26 -19 26 -6 0 -6 -6 2 -15z"/>
<path d="M1144 4314 c3 -8 6 -18 6 -20 0 -2 4 -4 8 -4 15 0 9 29 -6 35 -10 4
-12 0 -8 -11z"/>
<path d="M1441 4294 c0 -11 3 -14 6 -6 3 7 2 16 -1 19 -3 4 -6 -2 -5 -13z"/>
<path d="M1121 4214 c0 -11 3 -14 6 -6 3 7 2 16 -1 19 -3 4 -6 -2 -5 -13z"/>
<path d="M1475 4110 c0 -23 5 -42 13 -45 10 -4 12 3 7 28 -12 52 -21 60 -20
17z"/>
<path d="M1456 4105 c-3 -8 -1 -15 4 -15 6 0 10 7 10 15 0 8 -2 15 -4 15 -2 0
-6 -7 -10 -15z"/>
<path d="M1420 4066 c0 -8 5 -18 10 -21 6 -3 10 1 10 9 0 8 -4 18 -10 21 -5 3
-10 -1 -10 -9z"/>
<path d="M1466 4021 c-3 -4 1 -17 9 -27 13 -16 16 -17 25 -4 5 8 10 20 10 25
0 6 -4 4 -9 -4 -5 -7 -14 -10 -20 -7 -6 4 -9 12 -6 17 4 5 4 9 1 9 -3 0 -7 -4
-10 -9z"/>
<path d="M1437 3989 c4 -13 8 -18 11 -10 2 7 -1 18 -6 23 -8 8 -9 4 -5 -13z"/>
<path d="M1086 3966 c-4 -15 -11 -24 -15 -21 -5 3 -7 -4 -4 -15 3 -11 7 -20 8
-20 10 0 31 60 25 70 -5 8 -10 2 -14 -14z"/>
<path d="M1477 3953 c3 -7 9 -10 14 -7 14 8 11 21 -5 21 -8 0 -12 -6 -9 -14z"/>
<path d="M1445 3935 c7 -33 12 -41 20 -33 3 3 -2 18 -11 34 l-16 29 7 -30z"/>
<path d="M1510 3955 c0 -5 5 -17 10 -25 5 -8 10 -10 10 -5 0 6 -5 17 -10 25
-5 8 -10 11 -10 5z"/>
<path d="M1495 3910 c3 -5 8 -10 11 -10 2 0 4 5 4 10 0 6 -5 10 -11 10 -5 0
-7 -4 -4 -10z"/>
<path d="M1096 3867 c-4 -21 -10 -46 -13 -55 -6 -15 -5 -15 10 -3 9 7 14 17
11 23 -3 5 2 20 11 35 9 14 12 23 7 19 -6 -3 -12 0 -15 6 -2 7 -7 -4 -11 -25z"/>
<path d="M1461 3880 c0 -8 4 -24 9 -35 5 -13 9 -14 9 -5 0 8 -4 24 -9 35 -5
13 -9 14 -9 5z"/>
<path d="M1055 3851 c-10 -18 -14 -51 -6 -51 5 0 11 12 14 28 6 30 3 39 -8 23z"/>
<path d="M1080 3787 c0 -1 -4 -16 -9 -32 -7 -26 -6 -31 9 -31 14 0 16 4 6 19
-9 15 -7 21 8 33 17 12 18 14 3 14 -9 0 -17 -1 -17 -3z"/>
<path d="M1496 3733 c6 -4 14 -15 17 -23 5 -11 6 -9 4 4 -1 11 -9 21 -17 23
-10 3 -11 2 -4 -4z"/>
<path d="M1555 3730 c3 -5 8 -10 11 -10 2 0 4 5 4 10 0 6 -5 10 -11 10 -5 0
-7 -4 -4 -10z"/>
<path d="M1620 3618 c0 -9 5 -20 10 -23 13 -8 13 5 0 25 -8 13 -10 13 -10 -2z"/>
<path d="M920 3536 c0 -2 7 -7 16 -10 8 -3 12 -2 9 4 -6 10 -25 14 -25 6z"/>
<path d="M1668 3503 c7 -3 16 -2 19 1 4 3 -2 6 -13 5 -11 0 -14 -3 -6 -6z"/>
<path d="M875 3439 c-9 -17 -14 -33 -11 -37 3 -3 6 0 6 7 0 7 5 9 12 5 7 -4 8
-3 4 4 -4 6 -2 21 4 32 6 11 8 20 6 20 -3 0 -13 -14 -21 -31z"/>
<path d="M815 3340 c-10 -11 -13 -20 -7 -20 6 0 16 9 22 20 6 11 9 20 7 20 -2
0 -12 -9 -22 -20z"/>
<path d="M889 3309 c-15 -29 -2 -37 22 -12 18 17 19 21 5 26 -10 4 -20 -1 -27
-14z"/>
<path d="M732 3219 c-12 -21 -21 -39 -18 -39 7 0 49 71 44 75 -2 2 -14 -14
-26 -36z"/>
<path d="M1870 3177 c0 -20 4 -38 8 -41 10 -6 9 60 -1 70 -4 4 -7 -9 -7 -29z"/>
<path d="M1463 3051 c-46 -10 -80 -24 -93 -38 l-20 -22 33 -22 c17 -13 34 -26
37 -29 3 -3 10 -6 17 -7 6 -1 24 -14 39 -28 31 -29 42 -31 51 -9 3 8 12 13 19
10 8 -3 14 -2 14 2 0 13 46 8 62 -6 14 -11 87 -10 107 3 14 8 79 -44 84 -67 2
-13 4 -44 2 -70 l-2 -47 29 15 c31 16 58 66 58 109 0 71 -89 176 -152 181 -13
1 -18 -6 -18 -26 0 -15 -7 -33 -16 -40 -13 -11 -18 -10 -35 7 l-21 20 31 11
c35 12 37 17 15 39 -33 34 -129 39 -241 14z m227 -21 c0 -5 -5 -10 -11 -10 -5
0 -7 5 -4 10 3 6 8 10 11 10 2 0 4 -4 4 -10z m-120 -35 c0 -14 -2 -25 -4 -25
-2 0 -6 11 -8 25 -3 14 -1 25 3 25 5 0 9 -11 9 -25z m-34 -24 c-11 -17 -66
-14 -66 4 0 22 42 36 59 20 7 -7 10 -18 7 -24z m107 24 c-3 -9 -8 -14 -10 -11
-3 3 -2 9 2 15 9 16 15 13 8 -4z m27 -56 c0 -6 -4 -7 -10 -4 -5 3 -10 11 -10
16 0 6 5 7 10 4 6 -3 10 -11 10 -16z"/>
<path d="M931 3046 c-6 -7 -22 -11 -36 -8 -51 9 -149 -69 -181 -146 -15 -36
-11 -95 9 -120 5 -7 7 -15 4 -19 -10 -9 25 -32 51 -33 25 0 25 0 12 58 -7 31
-7 49 1 65 16 29 41 48 56 42 7 -2 15 0 18 5 7 12 67 3 76 -11 4 -7 16 -9 28
-6 12 3 19 1 15 -5 -3 -5 -1 -22 6 -37 8 -21 9 -39 1 -69 -10 -36 -26 -55 -95
-110 -5 -4 -30 -6 -55 -5 -40 2 -39 1 14 -8 33 -5 66 -11 73 -14 7 -3 12 4 12
18 0 16 3 18 9 9 7 -11 9 -10 15 3 3 9 10 14 15 11 5 -4 12 7 16 23 3 16 12
34 19 40 7 6 3 -17 -11 -57 -25 -73 -28 -108 -14 -146 7 -17 7 -26 -1 -28 -18
-6 17 -130 53 -188 17 -28 39 -55 50 -61 10 -5 19 -16 19 -23 0 -18 135 -146
155 -146 9 0 13 -4 10 -10 -3 -5 36 -53 87 -105 62 -63 90 -99 84 -105 -7 -7
-6 -10 1 -10 6 0 23 -30 39 -67 16 -38 33 -71 38 -75 6 -4 5 -12 -2 -20 -6 -8
-14 -34 -18 -57 -18 -110 -161 -182 -270 -136 -70 29 -124 93 -124 148 0 13
-5 28 -11 34 -8 8 -7 17 5 34 9 13 16 33 16 46 0 12 7 28 15 37 8 8 15 18 15
23 0 5 9 15 20 23 11 8 20 20 20 27 0 6 5 15 11 18 19 12 21 -3 3 -32 -10 -17
5 -6 40 29 31 31 58 52 62 47 8 -13 24 -11 24 4 0 12 -180 208 -191 207 -4 0
-18 -18 -32 -39 -15 -22 -35 -42 -46 -46 -12 -3 -19 -14 -18 -26 1 -12 6 -18
15 -14 7 3 17 5 22 5 5 0 10 8 12 18 2 11 6 13 11 5 4 -6 0 -18 -8 -26 -8 -9
-15 -22 -15 -31 0 -8 -5 -18 -10 -21 -23 -14 -8 -30 28 -29 32 0 72 -22 72
-40 0 -10 -84 1 -88 12 -7 21 -41 13 -57 -12 -30 -45 -56 -128 -50 -156 5 -22
10 -26 34 -22 16 2 39 -2 52 -9 l24 -12 -33 -14 c-25 -10 -38 -11 -54 -2 -17
9 -23 8 -31 -7 -13 -23 -10 -106 5 -154 24 -77 98 -163 170 -199 21 -10 34
-22 30 -26 -4 -5 -2 -5 4 -2 18 10 75 -4 71 -17 -2 -6 -14 -10 -26 -9 -14 2
-21 -3 -21 -15 -1 -15 -2 -15 -15 2 -13 18 -86 56 -106 56 -5 0 -9 -8 -9 -17
0 -10 -14 -38 -31 -63 -32 -47 -31 -44 -13 -145 4 -23 0 -35 -19 -53 l-25 -23
5 -192 c2 -105 9 -198 14 -207 9 -13 10 -13 5 2 -3 10 -1 20 4 23 6 4 10 -2
10 -11 0 -14 3 -13 20 6 25 29 26 44 1 37 -17 -4 -18 -2 -10 19 15 42 2 101
-14 62 -3 -8 -6 -6 -6 5 -1 10 6 17 17 18 14 0 14 2 -3 9 -18 8 -17 9 6 7 17
-1 25 -6 22 -14 -3 -7 0 -13 6 -13 6 0 11 -8 11 -17 0 -14 2 -15 9 -4 6 9 11
10 15 2 4 -6 12 -9 17 -6 12 8 11 25 -2 25 -6 0 -17 7 -26 16 -12 12 -13 20
-5 38 11 25 38 30 46 9 3 -8 10 -11 16 -8 19 12 10 31 -22 43 -27 10 -35 9
-50 -5 -10 -9 -18 -22 -18 -30 0 -8 -4 -12 -9 -9 -5 4 -12 0 -15 -6 -7 -14 0
22 10 61 5 17 4 22 -4 17 -14 -9 -15 3 -3 23 6 9 4 23 -6 38 -21 32 -10 41 58
46 30 2 60 6 65 9 5 2 24 4 42 2 29 -1 31 0 15 11 -17 13 -17 14 2 21 11 4 24
9 29 12 5 3 6 1 3 -5 -7 -12 22 -37 48 -41 11 -2 22 -8 24 -13 1 -6 9 -2 17 8
13 17 13 17 14 -2 0 -14 3 -16 9 -7 4 7 12 12 17 11 20 -3 78 3 67 8 -23 9
-13 20 13 15 16 -3 21 -7 14 -12 -8 -5 -4 -9 11 -13 13 -4 26 -1 30 4 5 8 9 8
13 0 4 -6 22 -11 41 -11 40 0 65 -8 65 -22 0 -5 -5 -6 -11 -3 -5 4 -15 -7 -21
-23 -7 -17 -21 -33 -31 -36 -13 -3 -18 -10 -13 -21 8 -22 -17 -48 -33 -32 -8
8 -11 8 -11 -2 0 -7 -6 -11 -14 -8 -9 4 -12 0 -9 -13 4 -15 9 -17 30 -9 33 12
40 12 47 -7 9 -23 -20 -65 -39 -58 -10 4 -15 0 -15 -11 0 -9 4 -14 9 -11 5 3
14 -1 21 -9 10 -12 14 -12 26 0 8 7 14 19 14 26 0 7 7 21 17 31 14 15 14 22 4
45 -9 19 -9 29 -2 31 6 2 11 10 11 17 0 8 4 17 10 20 5 3 8 0 6 -7 -13 -40
-16 -69 -7 -64 5 4 13 1 17 -5 5 -8 3 -9 -6 -4 -10 6 -12 4 -7 -8 3 -10 3 -17
-1 -17 -4 0 -7 -32 -6 -71 0 -38 -3 -72 -7 -75 -5 -3 -6 -11 -3 -19 4 -10 -5
-16 -30 -21 -20 -3 -36 -11 -36 -16 0 -6 -6 -5 -15 2 -8 6 -18 10 -22 7 -10
-6 -84 -19 -98 -18 -5 1 -29 4 -53 7 -32 5 -42 3 -40 -7 2 -7 -6 -15 -17 -17
-17 -4 -18 -2 -6 12 13 15 11 16 -12 7 -19 -8 -27 -7 -31 5 -3 8 -10 14 -17
14 -6 0 -8 -7 -5 -16 6 -15 4 -15 -10 -3 -16 13 -16 12 -6 -8 11 -19 10 -21
-11 -16 -12 3 -27 10 -33 15 -6 4 -19 5 -29 2 -12 -5 -23 -1 -31 11 -8 10 -14
13 -14 7 0 -7 -7 -12 -15 -12 -33 0 -12 -19 38 -35 28 -10 63 -28 78 -41 14
-13 30 -24 37 -24 7 0 12 -5 12 -11 0 -6 7 -9 15 -5 8 3 15 1 15 -4 0 -6 -6
-11 -12 -11 -7 -1 5 -5 27 -9 23 -5 45 -4 52 2 7 5 13 5 17 -1 3 -5 0 -12 -6
-14 -7 -3 -8 -6 -2 -6 5 -1 20 8 32 19 22 21 37 27 27 10 -3 -5 -2 -10 3 -10
6 0 13 8 17 18 6 15 9 13 21 -10 19 -35 27 -36 14 -2 -8 21 -8 25 4 21 8 -3
22 3 32 15 67 71 78 79 103 73 17 -4 21 -3 12 3 -10 7 -10 11 -1 17 6 4 14 5
17 2 2 -3 15 4 29 15 23 21 23 24 24 209 0 185 -1 188 -24 206 -44 35 -50 59
-26 105 18 35 19 45 9 75 -6 19 -24 46 -40 61 -16 14 -29 36 -29 49 0 12 -6
23 -12 22 -26 -1 -73 -37 -70 -52 3 -18 -19 -24 -66 -19 -25 3 -30 7 -22 17 8
9 4 11 -15 7 -14 -2 -25 0 -25 6 0 6 8 11 18 12 53 2 72 6 72 13 0 4 7 7 15 7
25 0 57 22 111 76 62 62 94 138 94 222 0 73 -8 85 -51 78 -38 -7 -66 5 -54 24
5 8 21 10 46 7 35 -5 40 -2 45 18 14 56 -67 229 -103 223 -13 -2 -18 4 -18 25
-1 22 -19 45 -78 103 -43 41 -84 74 -92 74 -8 0 -15 9 -15 20 0 24 -81 114
-118 133 -14 6 -26 19 -28 28 -1 9 -13 33 -26 55 -14 21 -29 53 -35 69 -8 25
-15 30 -39 28 -67 -4 -94 15 -53 38 16 8 20 8 14 0 -5 -8 2 -10 22 -5 15 4 31
8 35 11 8 4 33 113 29 131 -1 7 5 20 14 29 14 13 18 14 25 3 7 -11 13 -6 27
18 18 32 27 35 91 35 38 0 40 4 10 17 -21 8 -21 9 -3 9 15 1 12 6 -15 21 -89
51 -180 80 -269 84 -13 0 -25 8 -26 16 -2 12 8 14 49 11 28 -1 56 -7 63 -12 7
-7 13 -5 16 3 4 10 6 10 6 1 1 -7 12 -13 26 -13 14 0 25 -4 25 -10 0 -5 5 -10
12 -10 6 0 40 -14 76 -31 52 -26 66 -29 73 -18 5 8 9 19 9 25 0 7 7 15 16 18
9 3 12 2 9 -5 -4 -6 3 -7 19 -3 21 5 25 3 20 -9 -7 -19 -32 -29 -47 -20 -7 3
-9 3 -5 -2 4 -4 2 -15 -5 -23 -10 -13 -9 -14 2 -7 11 6 13 2 9 -18 -3 -15 -1
-24 3 -21 5 2 19 -11 31 -30 13 -20 28 -36 35 -36 6 0 13 -6 16 -12 3 -10 9
-9 23 2 16 13 40 17 78 11 23 -3 -21 -31 -49 -31 -20 0 -35 -6 -38 -15 -8 -19
3 -117 14 -131 6 -7 2 -21 -9 -35 -10 -13 -31 -50 -47 -81 -15 -32 -30 -58
-34 -58 -11 0 -57 -44 -63 -61 -4 -11 12 -35 52 -75 32 -32 56 -63 53 -68 -3
-5 -1 -6 4 -3 6 4 16 0 23 -8 18 -21 30 -19 30 7 0 12 8 30 18 41 9 11 11 17
5 13 -8 -4 -13 -1 -13 8 0 9 5 16 10 16 6 0 10 9 10 20 0 17 -5 19 -27 15 -24
-5 -25 -5 -10 5 10 7 25 9 32 6 9 -3 25 10 44 37 15 23 29 45 30 49 1 4 8 26
16 48 8 22 14 44 14 48 0 4 3 30 6 57 9 70 -17 179 -50 209 -25 23 -34 43 -14
30 6 -3 4 7 -4 22 -17 33 -102 124 -115 124 -5 0 -28 18 -50 40 -49 46 -160
102 -248 124 -78 20 -197 21 -213 2z m54 -24 c-3 -3 -11 0 -18 7 -9 10 -8 11
6 5 10 -3 15 -9 12 -12z m35 -33 c0 -11 -4 -17 -10 -14 -5 3 -10 15 -10 26 0
11 5 17 10 14 6 -3 10 -15 10 -26z m146 22 c-6 -9 -46 -22 -46 -15 0 3 10 9
23 14 29 11 29 11 23 1z m-185 -40 c-7 -12 -6 -22 2 -30 8 -8 -2 -7 -27 3 -21
9 -40 16 -42 16 -2 0 -4 10 -4 21 0 16 5 20 20 16 11 -3 20 -1 20 4 0 6 9 5
20 -1 16 -8 18 -15 11 -29z m220 -29 c-6 -2 -18 -10 -25 -18 -23 -22 -38 -17
-34 13 4 33 47 49 62 24 6 -10 5 -16 -3 -19z m-307 12 c3 -8 2 -12 -4 -9 -6 3
-10 10 -10 16 0 14 7 11 14 -7z m476 -48 c0 -2 -7 -6 -15 -10 -8 -3 -15 -1
-15 4 0 6 7 10 15 10 8 0 15 -2 15 -4z m160 -152 c0 -2 -7 -4 -15 -4 -8 0 -15
4 -15 10 0 5 7 7 15 4 8 -4 15 -8 15 -10z m-400 -35 c0 -17 -23 -21 -46 -8
-34 18 -30 26 11 21 19 -2 35 -8 35 -13z m-15 -79 c-3 -5 -11 -10 -16 -10 -6
0 -7 5 -4 10 3 6 11 10 16 10 6 0 7 -4 4 -10z m-94 -43 c-10 -9 -11 -8 -5 6 3
10 9 15 12 12 3 -3 0 -11 -7 -18z m579 -41 c0 -27 -10 -14 -16 20 -3 22 -2 25
6 14 5 -8 10 -24 10 -34z m-93 2 c-3 -8 -6 -5 -6 6 -1 11 2 17 5 13 3 -3 4
-12 1 -19z m67 -66 c19 -4 19 -5 1 -18 -10 -8 -29 -14 -41 -14 -23 0 -48 22
-37 33 7 7 48 7 77 -1z m-538 -79 c-4 -4 -11 -1 -16 7 -16 25 -11 35 7 17 9
-9 13 -20 9 -24z m540 -21 c-18 -16 -18 -16 -6 6 6 13 14 21 18 18 3 -4 -2
-14 -12 -24z m-106 -12 c0 -5 -5 -10 -11 -10 -5 0 -7 5 -4 10 3 6 8 10 11 10
2 0 4 -4 4 -10z m20 -55 c14 -9 0 -35 -20 -35 -9 0 -24 8 -33 18 -15 17 -14
18 14 20 17 1 34 0 39 -3z m-290 -24 c-1 -18 -20 -32 -48 -36 -35 -4 -40 5
-18 28 15 14 66 21 66 8z m-31 -87 c14 -12 -19 -1 -35 12 -18 14 -18 14 6 3
14 -6 27 -13 29 -15z m313 -54 c-9 -11 -18 -17 -20 -15 -3 3 0 11 6 18 7 8 9
17 5 21 -4 4 0 4 9 1 15 -6 15 -8 0 -25z m-125 -41 c-13 -21 -64 -42 -72 -29
-3 5 0 19 6 32 8 20 16 23 44 20 30 -4 33 -6 22 -23z m-32 -59 c19 -8 19 -9
-2 -9 -12 -1 -25 4 -28 9 -7 12 2 12 30 0z m-185 -60 c0 -5 -5 -10 -11 -10 -5
0 -7 5 -4 10 3 6 8 10 11 10 2 0 4 -4 4 -10z m95 0 c3 -5 1 -10 -4 -10 -6 0
-11 5 -11 10 0 6 2 10 4 10 3 0 8 -4 11 -10z m295 -70 c0 -17 -33 -41 -47 -36
-8 3 -22 6 -30 6 -14 0 -14 2 1 19 10 11 25 17 34 14 9 -4 13 -2 9 4 -5 7 0 9
13 6 11 -3 20 -9 20 -13z m-275 -20 c-10 -11 -21 -18 -23 -15 -6 6 31 44 37
39 2 -2 -4 -13 -14 -24z m-105 -55 c0 -2 -10 -9 -22 -15 -22 -11 -22 -10 -4 4
21 17 26 19 26 11z m360 -15 c0 -5 -4 -10 -10 -10 -5 0 -10 5 -10 10 0 6 5 10
10 10 6 0 10 -4 10 -10z m110 -53 c0 -5 -4 -5 -10 -2 -5 3 -10 14 -10 23 0 15
2 15 10 2 5 -8 10 -19 10 -23z m20 -181 c0 -8 -4 -18 -10 -21 -5 -3 -10 3 -10
14 0 12 5 21 10 21 6 0 10 -6 10 -14z m-640 -28 c0 -25 -3 -29 -10 -18 -13 20
-13 50 0 50 6 0 10 -15 10 -32z m125 -28 c26 -29 15 -32 -15 -4 -13 13 -20 24
-14 24 6 0 19 -9 29 -20z m395 5 c0 -2 -10 -10 -22 -16 -21 -11 -22 -11 -9 4
13 16 31 23 31 12z m-401 -81 c-24 -26 -59 -21 -59 7 0 16 6 19 39 17 l40 -3
-20 -21z m449 14 c20 -20 14 -25 -25 -24 -27 1 -39 6 -41 19 -3 13 3 17 25 17
16 0 34 -5 41 -12z m-491 -74 c-3 -3 -12 -4 -19 -1 -8 3 -5 6 6 6 11 1 17 -2
13 -5z m271 -35 c3 -18 -30 -31 -54 -22 -14 5 -19 25 -9 34 12 12 60 3 63 -12z
m19 -36 c-13 -13 -13 -10 -3 22 9 30 12 32 14 15 2 -13 -3 -29 -11 -37z m-47
-63 c-19 -12 -47 -13 -54 -2 -3 5 11 9 32 10 27 1 33 -1 22 -8z m-150 -20 c0
-5 -5 -10 -11 -10 -5 0 -7 5 -4 10 3 6 8 10 11 10 2 0 4 -4 4 -10z m296 -45
c-11 -8 -17 -18 -13 -21 9 -9 62 12 60 23 -1 6 10 8 25 4 25 -5 25 -6 4 -9
-26 -4 -20 -22 9 -22 10 0 19 -5 19 -11 0 -5 5 -7 10 -4 6 3 10 4 10 1 0 -2 3
-11 6 -20 4 -11 0 -16 -14 -16 -12 0 -24 -4 -27 -10 -3 -5 -13 -10 -21 -10 -8
0 -12 4 -9 10 3 5 -13 -1 -36 -13 -39 -21 -40 -22 -18 -28 l24 -7 -25 -2 c-14
-1 -37 -3 -52 -5 -16 -2 -28 1 -28 7 0 6 -3 8 -7 5 -3 -4 -12 -2 -18 3 -10 8
-37 8 -62 1 -2 -1 -6 -1 -10 -2 -5 -1 -16 -5 -25 -10 -11 -6 -18 -6 -18 0 0 5
-22 7 -52 4 -45 -4 -51 -3 -40 10 10 12 9 16 -10 20 -12 4 -25 2 -28 -2 -7
-12 -49 6 -56 24 -3 8 -10 13 -14 10 -4 -3 -7 3 -6 13 1 19 33 52 50 52 6 0 4
-5 -4 -10 -8 -5 -11 -10 -7 -10 4 0 19 7 32 16 17 11 25 12 25 5 0 -8 13 -10
42 -6 24 4 46 9 50 11 3 2 8 -3 10 -13 3 -15 5 -15 21 2 15 15 20 16 27 5 6
-9 3 -18 -8 -27 -18 -13 -13 -17 12 -7 9 3 16 12 16 20 0 8 10 14 25 14 19 0
25 -5 26 -22 1 -21 2 -21 6 -3 3 11 10 25 15 30 8 7 9 4 5 -8 -5 -13 -2 -17
11 -15 9 2 20 8 24 13 5 6 8 5 8 -2 0 -8 8 -5 20 7 11 11 23 20 28 20 4 0 -2
-7 -12 -15z m-21 -165 c3 -5 1 -10 -4 -10 -6 0 -11 5 -11 10 0 6 2 10 4 10 3
0 8 -4 11 -10z m141 -177 c-10 -10 -19 5 -10 18 6 11 8 11 12 0 2 -7 1 -15 -2
-18z m39 -253 c3 -5 1 -10 -4 -10 -6 0 -11 5 -11 10 0 6 2 10 4 10 3 0 8 -4
11 -10z"/>
<path d="M1208 1193 c7 -3 16 -2 19 1 4 3 -2 6 -13 5 -11 0 -14 -3 -6 -6z"/>
<path d="M1331 1184 c0 -11 3 -14 6 -6 3 7 2 16 -1 19 -3 4 -6 -2 -5 -13z"/>
<path d="M740 3022 c0 -15 -6 -34 -12 -42 -11 -12 -10 -12 3 -2 9 6 18 10 20
7 3 -2 3 11 1 30 -5 42 -12 46 -12 7z"/>
<path d="M1847 3033 c-4 -3 -7 -13 -7 -22 1 -13 3 -13 11 2 11 19 8 33 -4 20z"/>
<path d="M1896 2925 c10 -43 20 -60 28 -46 4 6 2 11 -4 11 -7 0 -10 6 -7 14 3
8 -1 22 -9 33 -13 17 -14 16 -8 -12z"/>
<path d="M1230 2729 c0 -5 5 -7 10 -4 6 3 10 8 10 11 0 2 -4 4 -10 4 -5 0 -10
-5 -10 -11z"/>
<path d="M1846 2672 c-2 -4 4 -8 14 -8 10 0 16 4 14 8 -3 4 -9 8 -14 8 -5 0
-11 -4 -14 -8z"/>
<path d="M1657 2648 c-8 -29 11 -40 32 -19 14 13 14 17 2 20 -12 3 -12 4 0 12
11 7 9 9 -7 9 -14 0 -24 -8 -27 -22z"/>
<path d="M1380 2399 c0 -5 5 -7 10 -4 6 3 10 8 10 11 0 2 -4 4 -10 4 -5 0 -10
-5 -10 -11z"/>
<path d="M1230 2361 c0 -20 51 -61 75 -61 13 0 26 7 29 16 9 24 7 29 -6 16
-20 -20 -55 -13 -77 14 -12 15 -21 21 -21 15z"/>
<path d="M1610 2340 c0 -5 5 -10 11 -10 5 0 7 5 4 10 -3 6 -8 10 -11 10 -2 0
-4 -4 -4 -10z"/>
<path d="M567 2280 c-105 -18 -218 -145 -216 -244 0 -37 1 -39 10 -17 5 14 7
31 5 38 -3 7 -1 13 4 13 6 0 10 7 10 16 0 30 86 138 102 128 4 -3 8 0 8 5 0 6
7 11 15 11 9 0 18 7 22 16 5 13 7 13 14 2 7 -10 9 -8 9 6 0 13 4 16 13 9 6 -5
23 -7 37 -3 34 9 133 -22 183 -57 41 -28 92 -89 108 -130 5 -13 14 -35 21 -50
6 -16 11 -31 10 -35 -1 -5 2 -8 7 -8 6 0 8 -9 6 -20 -2 -11 1 -20 7 -20 6 0 8
-11 6 -25 -3 -14 -3 -25 -1 -25 16 0 45 25 53 46 5 13 15 23 22 22 8 -2 12 5
10 16 -2 12 1 16 9 10 7 -4 10 -3 5 4 -3 6 -19 9 -34 7 -16 -2 -33 -1 -39 3
-12 8 -43 67 -43 83 0 6 -14 33 -31 60 -42 64 -113 111 -206 135 -59 15 -57
15 -126 4z"/>
<path d="M1960 2286 c-3 -3 -21 -8 -39 -11 -86 -15 -171 -90 -230 -204 -35
-67 -46 -81 -66 -81 -35 0 -37 -12 -8 -56 28 -42 52 -70 38 -44 -7 12 -4 11
11 -2 18 -16 19 -15 20 36 2 71 60 226 79 208 5 -4 5 -1 0 6 -18 32 115 121
181 122 16 0 35 5 42 12 7 7 12 8 12 2 0 -5 15 -9 33 -9 17 0 38 -4 44 -8 7
-5 20 -7 28 -3 10 3 13 2 10 -4 -4 -6 7 -16 24 -23 17 -7 28 -16 24 -20 -3 -4
1 -7 10 -7 9 0 17 -4 17 -10 0 -5 7 -10 15 -10 9 0 19 -8 22 -17 4 -10 10 -20
13 -23 8 -6 50 -116 50 -130 0 -18 -32 -10 -37 8 -8 31 -105 66 -161 58 -54
-7 -105 -50 -123 -103 -15 -46 -5 -151 21 -218 5 -14 9 -29 9 -33 -1 -4 0 -9
1 -12 6 -17 5 -50 -2 -50 -5 0 -6 -4 -3 -10 3 -5 2 -10 -3 -10 -5 0 -15 -13
-21 -29 -9 -21 -18 -27 -37 -25 -13 1 -22 -2 -19 -6 7 -11 -29 -16 -84 -11
-30 2 -39 6 -30 12 10 6 10 9 2 9 -7 0 -10 6 -8 13 5 15 -13 40 -41 55 -18 9
-23 8 -32 -11 -7 -12 -13 -42 -14 -67 -3 -40 -1 -45 17 -42 54 7 75 8 75 1 0
-4 29 -6 65 -4 82 5 135 37 158 93 20 51 19 89 -5 187 -27 108 -21 167 21 208
27 28 38 32 80 31 40 0 60 -8 104 -38 31 -21 60 -35 66 -32 6 4 11 31 11 60 0
41 -6 62 -31 101 -38 60 -61 80 -124 110 -47 22 -173 43 -185 31z"/>
<path d="M1914 2231 c-58 -21 -114 -59 -114 -76 0 -7 -9 -20 -20 -30 -11 -10
-20 -25 -20 -33 0 -9 7 -7 21 9 l20 24 -11 -23 c-6 -13 -17 -25 -24 -28 -7 -3
-11 -17 -10 -32 1 -31 -12 -145 -21 -182 -5 -17 -4 -21 3 -11 6 8 12 10 16 3
4 -6 -4 -19 -17 -29 -20 -15 -23 -22 -14 -40 11 -25 28 -29 58 -13 10 6 19 7
19 2 0 -5 10 -8 22 -7 27 2 78 -23 78 -38 0 -7 5 -4 11 6 8 14 5 28 -11 59
-16 32 -20 55 -18 113 1 54 5 72 14 68 7 -3 37 18 66 47 29 28 69 56 89 63
l36 11 -24 19 c-83 65 -238 -48 -223 -163 1 -11 4 -10 11 5 7 14 8 5 4 -31 -3
-29 -12 -66 -21 -83 -15 -29 -25 -40 -23 -23 4 26 -2 72 -10 68 -5 -3 -11 4
-15 17 -9 34 -7 85 4 92 5 3 15 25 21 48 8 31 13 37 18 25 6 -17 7 -16 19 2 7
12 8 20 2 20 -22 0 -8 18 28 35 20 10 48 24 62 31 44 22 200 2 200 -25 0 -6
-8 -14 -17 -19 -14 -8 -10 -12 23 -21 51 -14 49 -15 52 16 1 14 -1 23 -5 20
-4 -4 -12 6 -19 23 -7 17 -21 30 -30 30 -10 0 -14 3 -11 6 12 12 -45 52 -82
58 -56 9 -82 7 -137 -13z"/>
<path d="M544 2226 c-39 -17 -113 -93 -121 -125 -7 -28 13 -44 39 -30 11 6 40
11 67 11 40 1 56 -5 95 -32 25 -18 46 -39 46 -45 0 -7 6 -18 14 -24 8 -7 17
-23 21 -38 3 -14 13 -32 20 -40 17 -16 21 -103 6 -103 -16 0 -24 -86 -11 -107
11 -17 11 -17 6 0 -4 12 2 26 16 38 35 30 78 51 78 39 0 -7 15 -10 38 -8 32 3
37 6 40 32 2 16 -1 26 -6 22 -5 -3 -10 7 -10 22 0 77 -31 252 -45 252 -4 0 -6
8 -3 18 4 12 -7 31 -34 60 -62 64 -180 91 -256 58z m174 -96 c22 -11 53 -35
67 -54 28 -37 45 -106 26 -106 -6 0 -11 -8 -10 -17 0 -11 3 -13 6 -5 2 6 10
12 17 12 9 0 12 10 9 28 -3 25 -3 26 6 4 11 -24 4 -55 -10 -46 -5 3 -10 -7
-11 -23 -1 -15 -2 -36 -2 -46 -1 -11 -9 -24 -17 -30 -9 -7 -18 -19 -22 -27 -3
-8 -6 8 -6 35 -1 28 -5 67 -10 88 -10 43 0 49 17 10 11 -27 11 -27 6 7 -17
102 -104 174 -199 164 -27 -3 -58 -8 -67 -10 -13 -4 -18 0 -18 14 0 14 5 19
18 16 9 -3 28 0 42 5 34 14 108 5 158 -19z"/>
<path d="M1490 2090 c0 -6 7 -10 15 -10 8 0 15 2 15 4 0 2 -7 6 -15 10 -8 3
-15 1 -15 -4z"/>
<path d="M510 2061 c0 -4 -16 -11 -34 -14 -38 -6 -110 -50 -99 -60 3 -4 0 -7
-7 -7 -11 0 -11 -3 -2 -12 9 -9 17 -7 34 9 13 11 33 26 46 32 12 7 20 16 17
20 -8 15 105 2 129 -15 13 -8 27 -25 30 -37 10 -39 6 -124 -9 -196 -30 -146
20 -237 140 -256 24 -3 62 -1 84 5 30 8 47 8 62 -1 20 -10 21 -9 14 33 -4 23
-14 48 -22 55 -8 6 -13 16 -9 21 3 5 -2 9 -10 9 -11 0 -14 -7 -11 -24 2 -13
-1 -23 -7 -23 -6 0 -16 -10 -21 -22 -6 -12 -17 -24 -25 -26 -11 -4 -10 -1 3
13 21 20 15 34 -7 16 -10 -8 -16 -9 -21 -1 -3 6 -11 8 -16 4 -5 -3 -7 -10 -4
-15 4 -5 0 -9 -9 -9 -8 0 -17 6 -20 13 -5 10 -7 10 -12 0 -3 -7 -10 -13 -15
-13 -6 0 -7 5 -4 10 3 6 1 10 -5 10 -6 0 -9 4 -5 9 3 5 -7 11 -22 13 -16 2
-27 8 -25 16 1 6 -4 11 -10 10 -9 -2 -14 10 -15 34 0 21 2 36 5 34 4 -2 8 10
8 27 3 56 9 85 17 80 7 -4 11 40 9 102 -2 68 -59 154 -95 142 -6 -2 -18 2 -25
10 -15 15 -32 17 -32 4z"/>
<path d="M1530 2030 c0 -5 5 -10 11 -10 5 0 7 5 4 10 -3 6 -8 10 -11 10 -2 0
-4 -4 -4 -10z"/>
<path d="M1792 1965 c0 -16 2 -22 5 -12 2 9 2 23 0 30 -3 6 -5 -1 -5 -18z"/>
<path d="M1176 1804 c-4 -9 -4 -19 -1 -22 2 -3 7 3 11 12 4 9 4 19 1 22 -2 3
-7 -3 -11 -12z"/>
<path d="M1160 1750 c0 -11 4 -20 9 -20 5 0 7 9 4 20 -3 11 -7 20 -9 20 -2 0
-4 -9 -4 -20z"/>
<path d="M1151 1694 c-2 -45 10 -95 20 -88 5 3 7 10 3 15 -3 6 -9 31 -14 57
-6 37 -8 40 -9 16z"/>
<path d="M1878 1661 c-31 -31 -19 -42 16 -16 12 9 16 18 10 24 -5 5 -16 2 -26
-8z"/>
<path d="M721 1653 c21 -27 33 -33 41 -21 7 13 -19 37 -41 38 -11 0 -11 -3 0
-17z"/>
<path d="M1170 1587 c0 -4 15 -22 33 -40 31 -31 40 -34 127 -39 3 0 7 1 10 2
3 1 12 3 22 5 21 4 78 46 78 57 0 10 -16 2 -42 -20 -9 -7 -22 -11 -29 -6 -7 4
-10 3 -6 -3 9 -14 -15 -23 -59 -23 -41 0 -68 12 -106 48 -16 14 -28 22 -28 19z"/>
<path d="M1246 1551 c10 -11 72 -27 63 -17 -4 4 -21 11 -39 16 -20 6 -30 6
-24 1z"/>
<path d="M1208 1023 c7 -3 16 -2 19 1 4 3 -2 6 -13 5 -11 0 -14 -3 -6 -6z"/>
<path d="M1300 869 c0 -6 -10 -19 -22 -28 l-22 -18 33 -5 c17 -3 34 -1 37 3 2
5 11 6 19 2 21 -7 19 3 -7 32 -23 27 -38 32 -38 14z"/>
<path d="M1340 757 c-14 -5 -35 -9 -47 -8 -13 1 -23 -3 -23 -9 0 -13 79 -4 94
11 15 14 3 18 -24 6z"/>
<path d="M1582 730 c0 -14 2 -19 5 -12 2 6 2 18 0 25 -3 6 -5 1 -5 -13z"/>
<path d="M1332 660 c3 -16 1 -30 -4 -30 -4 0 -8 11 -8 25 0 22 -2 24 -14 13
-10 -9 -11 -15 -2 -20 7 -5 5 -8 -6 -8 -9 0 -19 6 -21 13 -4 7 -6 8 -6 1 -2
-29 72 -56 82 -30 4 9 2 16 -2 16 -5 0 -8 11 -6 25 1 14 -2 25 -8 25 -5 0 -7
-13 -5 -30z"/>
<path d="M1580 670 c6 -11 13 -20 16 -20 2 0 0 9 -6 20 -6 11 -13 20 -16 20
-2 0 0 -9 6 -20z"/>
<path d="M1033 604 c-16 -16 -17 -32 -2 -17 6 6 19 9 28 6 9 -3 12 -1 6 4 -5
4 -12 11 -15 15 -3 3 -11 0 -17 -8z"/>
<path d="M1400 390 c0 -5 5 -10 10 -10 6 0 10 -8 11 -17 0 -12 2 -13 6 -5 4
10 8 10 19 1 8 -7 16 -10 19 -8 2 2 -12 14 -31 27 -19 12 -34 18 -34 12z"/>
<path d="M1230 266 c0 -2 7 -7 16 -10 8 -3 12 -2 9 4 -6 10 -25 14 -25 6z"/>
<path d="M1345 260 c4 -6 11 -8 16 -5 14 9 11 15 -7 15 -8 0 -12 -5 -9 -10z"/>
<path d="M1426 257 c3 -10 9 -15 12 -12 3 3 0 11 -7 18 -10 9 -11 8 -5 -6z"/>
<path d="M1220 240 c0 -5 5 -10 10 -10 6 0 10 5 10 10 0 6 -4 10 -10 10 -5 0
-10 -4 -10 -10z"/>
<path d="M1286 224 c-11 -7 -18 -16 -15 -18 2 -2 13 2 23 10 11 7 18 16 15 18
-2 2 -13 -2 -23 -10z"/>
<path d="M1370 213 c0 -10 4 -14 8 -8 4 6 11 13 16 18 5 4 2 7 -7 7 -10 0 -17
-8 -17 -17z"/>
<path d="M1492 190 c0 -14 2 -19 5 -12 2 6 2 18 0 25 -3 6 -5 1 -5 -13z"/>
<path d="M1320 190 c0 -5 5 -10 11 -10 5 0 7 5 4 10 -3 6 -8 10 -11 10 -2 0
-4 -4 -4 -10z"/>
</g>
</svg>
