<?xml version="1.0" standalone="no"?>
<!DOCTYPE svg PUBLIC "-//W3C//DTD SVG 20010904//EN"
 "http://www.w3.org/TR/2001/REC-SVG-20010904/DTD/svg10.dtd">
<svg version="1.0" xmlns="http://www.w3.org/2000/svg"
 width="300.000000pt" height="300.000000pt" viewBox="0 0 300.000000 300.000000"
 preserveAspectRatio="xMidYMid meet">
<metadata>
Created by potrace 1.10, written by Peter Selinger 2001-2011
</metadata>
<g transform="translate(0.000000,300.000000) scale(0.050000,-0.050000)"
fill="#1D6DB4" stroke="none">
<path d="M1820 5232 l-1030 -527 -375 -546 c-441 -643 -477 -731 -340 -840 88
-69 185 -51 545 99 1523 633 2321 962 2335 962 10 0 134 -48 276 -107 2634
-1094 2478 -1036 2585 -962 66 46 110 144 96 213 -12 60 -685 1069 -758 1138
-106 98 -2122 1098 -2214 1097 -78 -1 -232 -73 -1120 -527z"/>
<path d="M1610 3523 c-110 -52 -211 -101 -225 -110 -19 -12 -25 -231 -25 -984
l0 -969 230 0 230 0 0 1080 c0 594 -2 1079 -5 1078 -3 -1 -95 -44 -205 -95z"/>
<path d="M4080 2530 l0 -1070 230 0 230 0 0 977 0 977 -211 93 c-116 51 -219
93 -230 93 -12 0 -19 -402 -19 -1070z"/>
<path d="M905 3227 l-225 -91 0 -1408 0 -1408 230 0 230 0 0 1500 c0 825 -2
1500 -5 1499 -3 0 -106 -42 -230 -92z"/>
<path d="M4780 1810 l0 -1490 220 0 220 0 -5 1413 -5 1412 -199 78 c-109 42
-206 77 -215 77 -9 0 -16 -670 -16 -1490z"/>
</g>
</svg>
